<svg id="visual" viewBox="0 0 960 540" width="960" height="540" xmlns="http://www.w3.org/2000/svg" xmlns:xlink="http://www.w3.org/1999/xlink" version="1.1"><rect x="0" y="0" width="960" height="540" fill="#1C0522"></rect><defs><linearGradient id="grad1_0" x1="43.8%" y1="0%" x2="100%" y2="100%"><stop offset="14.444444444444446%" stop-color="#fbae3c" stop-opacity="1"></stop><stop offset="85.55555555555554%" stop-color="#fbae3c" stop-opacity="1"></stop></linearGradient></defs><defs><linearGradient id="grad1_1" x1="43.8%" y1="0%" x2="100%" y2="100%"><stop offset="14.444444444444446%" stop-color="#fbae3c" stop-opacity="1"></stop><stop offset="85.55555555555554%" stop-color="#e98244" stop-opacity="1"></stop></linearGradient></defs><defs><linearGradient id="grad1_2" x1="43.8%" y1="0%" x2="100%" y2="100%"><stop offset="14.444444444444446%" stop-color="#ca5b4b" stop-opacity="1"></stop><stop offset="85.55555555555554%" stop-color="#e98244" stop-opacity="1"></stop></linearGradient></defs><defs><linearGradient id="grad1_3" x1="43.8%" y1="0%" x2="100%" y2="100%"><stop offset="14.444444444444446%" stop-color="#ca5b4b" stop-opacity="1"></stop><stop offset="85.55555555555554%" stop-color="#a23d4d" stop-opacity="1"></stop></linearGradient></defs><defs><linearGradient id="grad1_4" x1="43.8%" y1="0%" x2="100%" y2="100%"><stop offset="14.444444444444446%" stop-color="#732747" stop-opacity="1"></stop><stop offset="85.55555555555554%" stop-color="#a23d4d" stop-opacity="1"></stop></linearGradient></defs><defs><linearGradient id="grad1_5" x1="43.8%" y1="0%" x2="100%" y2="100%"><stop offset="14.444444444444446%" stop-color="#732747" stop-opacity="1"></stop><stop offset="85.55555555555554%" stop-color="#451738" stop-opacity="1"></stop></linearGradient></defs><defs><linearGradient id="grad1_6" x1="43.8%" y1="0%" x2="100%" y2="100%"><stop offset="14.444444444444446%" stop-color="#1c0522" stop-opacity="1"></stop><stop offset="85.55555555555554%" stop-color="#451738" stop-opacity="1"></stop></linearGradient></defs><defs><linearGradient id="grad2_0" x1="0%" y1="0%" x2="56.3%" y2="100%"><stop offset="14.444444444444446%" stop-color="#fbae3c" stop-opacity="1"></stop><stop offset="85.55555555555554%" stop-color="#fbae3c" stop-opacity="1"></stop></linearGradient></defs><defs><linearGradient id="grad2_1" x1="0%" y1="0%" x2="56.3%" y2="100%"><stop offset="14.444444444444446%" stop-color="#e98244" stop-opacity="1"></stop><stop offset="85.55555555555554%" stop-color="#fbae3c" stop-opacity="1"></stop></linearGradient></defs><defs><linearGradient id="grad2_2" x1="0%" y1="0%" x2="56.3%" y2="100%"><stop offset="14.444444444444446%" stop-color="#e98244" stop-opacity="1"></stop><stop offset="85.55555555555554%" stop-color="#ca5b4b" stop-opacity="1"></stop></linearGradient></defs><defs><linearGradient id="grad2_3" x1="0%" y1="0%" x2="56.3%" y2="100%"><stop offset="14.444444444444446%" stop-color="#a23d4d" stop-opacity="1"></stop><stop offset="85.55555555555554%" stop-color="#ca5b4b" stop-opacity="1"></stop></linearGradient></defs><defs><linearGradient id="grad2_4" x1="0%" y1="0%" x2="56.3%" y2="100%"><stop offset="14.444444444444446%" stop-color="#a23d4d" stop-opacity="1"></stop><stop offset="85.55555555555554%" stop-color="#732747" stop-opacity="1"></stop></linearGradient></defs><defs><linearGradient id="grad2_5" x1="0%" y1="0%" x2="56.3%" y2="100%"><stop offset="14.444444444444446%" stop-color="#451738" stop-opacity="1"></stop><stop offset="85.55555555555554%" stop-color="#732747" stop-opacity="1"></stop></linearGradient></defs><defs><linearGradient id="grad2_6" x1="0%" y1="0%" x2="56.3%" y2="100%"><stop offset="14.444444444444446%" stop-color="#451738" stop-opacity="1"></stop><stop offset="85.55555555555554%" stop-color="#1c0522" stop-opacity="1"></stop></linearGradient></defs><g transform="translate(960, 0)"><path d="M0 486C-65.6 481.1 -131.2 476.2 -186 449C-240.8 421.9 -284.8 372.5 -324.6 324.6C-364.3 276.7 -399.7 230.3 -425.9 176.4C-452.1 122.6 -469 61.3 -486 0L0 0Z" fill="#2f102e"></path><path d="M0 416.6C-56.2 412.4 -112.4 408.1 -159.4 384.9C-206.4 361.6 -244.1 319.3 -278.2 278.2C-312.3 237.1 -342.6 197.4 -365.1 151.2C-387.5 105.1 -402 52.5 -416.6 0L0 0Z" fill="#5c1f41"></path><path d="M0 347.1C-46.8 343.6 -93.7 340.1 -132.8 320.7C-172 301.3 -203.5 266 -231.8 231.8C-260.2 197.6 -285.5 164.5 -304.2 126C-322.9 87.6 -335 43.8 -347.1 0L0 0Z" fill="#8b314b"></path><path d="M0 277.7C-37.5 274.9 -75 272.1 -106.3 256.6C-137.6 241.1 -162.8 212.8 -185.5 185.5C-208.2 158.1 -228.4 131.6 -243.4 100.8C-258.3 70 -268 35 -277.7 0L0 0Z" fill="#b74b4d"></path><path d="M0 208.3C-28.1 206.2 -56.2 204.1 -79.7 192.4C-103.2 180.8 -122.1 159.6 -139.1 139.1C-156.1 118.6 -171.3 98.7 -182.5 75.6C-193.8 52.5 -201 26.3 -208.3 0L0 0Z" fill="#db6e48"></path><path d="M0 138.9C-18.7 137.5 -37.5 136 -53.1 128.3C-68.8 120.5 -81.4 106.4 -92.7 92.7C-104.1 79 -114.2 65.8 -121.7 50.4C-129.2 35 -134 17.5 -138.9 0L0 0Z" fill="#f49740"></path><path d="M0 69.4C-9.4 68.7 -18.7 68 -26.6 64.1C-34.4 60.3 -40.7 53.2 -46.4 46.4C-52 39.5 -57.1 32.9 -60.8 25.2C-64.6 17.5 -67 8.8 -69.4 0L0 0Z" fill="#fbae3c"></path></g><g transform="translate(0, 540)"><path d="M0 -486C52.2 -453.8 104.4 -421.7 167.2 -403.7C230.1 -385.8 303.6 -382.1 343.7 -343.7C383.7 -305.3 390.2 -232.2 408.4 -169.1C426.5 -106.1 456.2 -53 486 0L0 0Z" fill="#2f102e"></path><path d="M0 -416.6C44.7 -389 89.5 -361.4 143.3 -346.1C197.2 -330.7 260.2 -327.5 294.6 -294.6C328.9 -261.6 334.5 -199 350 -145C365.6 -90.9 391.1 -45.5 416.6 0L0 0Z" fill="#5c1f41"></path><path d="M0 -347.1C37.3 -324.2 74.6 -301.2 119.5 -288.4C164.4 -275.6 216.9 -272.9 245.5 -245.5C274.1 -218 278.7 -165.9 291.7 -120.8C304.6 -75.8 325.9 -37.9 347.1 0L0 0Z" fill="#8b314b"></path><path d="M0 -277.7C29.8 -259.3 59.6 -241 95.6 -230.7C131.5 -220.5 173.5 -218.3 196.4 -196.4C219.2 -174.4 223 -132.7 233.3 -96.7C243.7 -60.6 260.7 -30.3 277.7 0L0 0Z" fill="#b74b4d"></path><path d="M0 -208.3C22.4 -194.5 44.7 -180.7 71.7 -173C98.6 -165.3 130.1 -163.7 147.3 -147.3C164.4 -130.8 167.2 -99.5 175 -72.5C182.8 -45.5 195.5 -22.7 208.3 0L0 0Z" fill="#db6e48"></path><path d="M0 -138.9C14.9 -129.7 29.8 -120.5 47.8 -115.4C65.7 -110.2 86.7 -109.2 98.2 -98.2C109.6 -87.2 111.5 -66.3 116.7 -48.3C121.9 -30.3 130.4 -15.2 138.9 0L0 0Z" fill="#f49740"></path><path d="M0 -69.4C7.5 -64.8 14.9 -60.2 23.9 -57.7C32.9 -55.1 43.4 -54.6 49.1 -49.1C54.8 -43.6 55.7 -33.2 58.3 -24.2C60.9 -15.2 65.2 -7.6 69.4 0L0 0Z" fill="#fbae3c"></path></g></svg>