<svg id="visual" viewBox="0 0 525 1611" width="525" height="1611" xmlns="http://www.w3.org/2000/svg" xmlns:xlink="http://www.w3.org/1999/xlink" version="1.1"><rect x="0" y="0" width="525" height="1611" fill="#1C0522"></rect><defs><linearGradient id="grad1_0" x1="0%" y1="0%" x2="100%" y2="100%"><stop offset="30%" stop-color="#fbae3c" stop-opacity="1"></stop><stop offset="70%" stop-color="#fbae3c" stop-opacity="1"></stop></linearGradient></defs><defs><linearGradient id="grad1_1" x1="0%" y1="0%" x2="100%" y2="100%"><stop offset="30%" stop-color="#fbae3c" stop-opacity="1"></stop><stop offset="70%" stop-color="#ec8843" stop-opacity="1"></stop></linearGradient></defs><defs><linearGradient id="grad1_2" x1="0%" y1="0%" x2="100%" y2="100%"><stop offset="30%" stop-color="#d4664a" stop-opacity="1"></stop><stop offset="70%" stop-color="#ec8843" stop-opacity="1"></stop></linearGradient></defs><defs><linearGradient id="grad1_3" x1="0%" y1="0%" x2="100%" y2="100%"><stop offset="30%" stop-color="#d4664a" stop-opacity="1"></stop><stop offset="70%" stop-color="#b4494d" stop-opacity="1"></stop></linearGradient></defs><defs><linearGradient id="grad1_4" x1="0%" y1="0%" x2="100%" y2="100%"><stop offset="30%" stop-color="#8e334c" stop-opacity="1"></stop><stop offset="70%" stop-color="#b4494d" stop-opacity="1"></stop></linearGradient></defs><defs><linearGradient id="grad1_5" x1="0%" y1="0%" x2="100%" y2="100%"><stop offset="30%" stop-color="#8e334c" stop-opacity="1"></stop><stop offset="70%" stop-color="#662244" stop-opacity="1"></stop></linearGradient></defs><defs><linearGradient id="grad1_6" x1="0%" y1="0%" x2="100%" y2="100%"><stop offset="30%" stop-color="#3e1536" stop-opacity="1"></stop><stop offset="70%" stop-color="#662244" stop-opacity="1"></stop></linearGradient></defs><defs><linearGradient id="grad1_7" x1="0%" y1="0%" x2="100%" y2="100%"><stop offset="30%" stop-color="#3e1536" stop-opacity="1"></stop><stop offset="70%" stop-color="#1c0522" stop-opacity="1"></stop></linearGradient></defs><defs><linearGradient id="grad2_0" x1="0%" y1="0%" x2="100%" y2="100%"><stop offset="30%" stop-color="#fbae3c" stop-opacity="1"></stop><stop offset="70%" stop-color="#fbae3c" stop-opacity="1"></stop></linearGradient></defs><defs><linearGradient id="grad2_1" x1="0%" y1="0%" x2="100%" y2="100%"><stop offset="30%" stop-color="#ec8843" stop-opacity="1"></stop><stop offset="70%" stop-color="#fbae3c" stop-opacity="1"></stop></linearGradient></defs><defs><linearGradient id="grad2_2" x1="0%" y1="0%" x2="100%" y2="100%"><stop offset="30%" stop-color="#ec8843" stop-opacity="1"></stop><stop offset="70%" stop-color="#d4664a" stop-opacity="1"></stop></linearGradient></defs><defs><linearGradient id="grad2_3" x1="0%" y1="0%" x2="100%" y2="100%"><stop offset="30%" stop-color="#b4494d" stop-opacity="1"></stop><stop offset="70%" stop-color="#d4664a" stop-opacity="1"></stop></linearGradient></defs><defs><linearGradient id="grad2_4" x1="0%" y1="0%" x2="100%" y2="100%"><stop offset="30%" stop-color="#b4494d" stop-opacity="1"></stop><stop offset="70%" stop-color="#8e334c" stop-opacity="1"></stop></linearGradient></defs><defs><linearGradient id="grad2_5" x1="0%" y1="0%" x2="100%" y2="100%"><stop offset="30%" stop-color="#662244" stop-opacity="1"></stop><stop offset="70%" stop-color="#8e334c" stop-opacity="1"></stop></linearGradient></defs><defs><linearGradient id="grad2_6" x1="0%" y1="0%" x2="100%" y2="100%"><stop offset="30%" stop-color="#662244" stop-opacity="1"></stop><stop offset="70%" stop-color="#3e1536" stop-opacity="1"></stop></linearGradient></defs><defs><linearGradient id="grad2_7" x1="0%" y1="0%" x2="100%" y2="100%"><stop offset="30%" stop-color="#1c0522" stop-opacity="1"></stop><stop offset="70%" stop-color="#3e1536" stop-opacity="1"></stop></linearGradient></defs><g transform="translate(525, 0)"><path d="M0 525C-21 510.1 -42 495.1 -65 493.7C-88 492.4 -113.1 504.6 -134.1 500.3C-155 496.1 -171.9 475.5 -192.9 465.6C-213.9 455.8 -239 456.8 -258 446.9C-277 436.9 -290 416 -308.6 402.2C-327.3 388.5 -351.7 381.9 -365.6 365.6C-379.4 349.3 -382.8 323.2 -399.1 306.2C-415.4 289.2 -444.6 281.1 -453.8 262C-463 242.9 -452.1 212.8 -461 191C-470 169.2 -498.8 155.7 -507.1 135.9C-515.4 116.1 -503.1 89.9 -502.7 66.2C-502.2 42.5 -513.6 21.2 -525 0L0 0Z" fill="#2c0f2c"></path><path d="M0 459.4C-18.4 446.3 -36.7 433.2 -56.9 432C-77 430.8 -99 441.5 -117.3 437.8C-135.7 434.1 -150.4 416 -168.8 407.4C-187.1 398.8 -209.1 399.7 -225.7 391C-242.4 382.3 -253.7 364 -270.1 352C-286.4 339.9 -307.7 334.1 -319.9 319.9C-332 305.6 -334.9 282.8 -349.2 267.9C-363.4 253 -389 246 -397.1 229.3C-405.1 212.5 -395.5 186.2 -403.4 167.1C-411.2 148 -436.5 136.2 -443.7 118.9C-451 101.6 -440.2 78.6 -439.8 57.9C-439.4 37.2 -449.4 18.6 -459.4 0L0 0Z" fill="#521c3d"></path><path d="M0 393.8C-15.7 382.5 -31.5 371.3 -48.8 370.3C-66 369.3 -84.8 378.4 -100.6 375.3C-116.3 372.1 -128.9 356.6 -144.7 349.2C-160.4 341.9 -179.2 342.6 -193.5 335.2C-207.8 327.7 -217.5 312 -231.5 301.7C-245.5 291.4 -263.8 286.4 -274.2 274.2C-284.6 262 -287.1 242.4 -299.3 229.7C-311.5 216.9 -333.5 210.8 -340.3 196.5C-347.2 182.2 -339 159.6 -345.8 143.2C-352.5 126.9 -374.1 116.8 -380.3 101.9C-386.5 87 -377.3 67.4 -377 49.6C-376.7 31.9 -385.2 15.9 -393.7 0L0 0Z" fill="#7a2a49"></path><path d="M0 328.1C-13.1 318.8 -26.2 309.4 -40.6 308.6C-55 307.7 -70.7 315.4 -83.8 312.7C-96.9 310.1 -107.4 297.2 -120.5 291C-133.7 284.9 -149.4 285.5 -161.2 279.3C-173.1 273.1 -181.2 260 -192.9 251.4C-204.6 242.8 -219.8 238.7 -228.5 228.5C-237.1 218.3 -239.2 202 -249.4 191.4C-259.6 180.7 -277.9 175.7 -283.6 163.8C-289.4 151.8 -282.5 133 -288.1 119.3C-293.7 105.7 -311.8 97.3 -316.9 84.9C-322.1 72.5 -314.4 56.2 -314.2 41.4C-313.9 26.5 -321 13.3 -328.1 0L0 0Z" fill="#a23d4d"></path><path d="M0 262.5C-10.5 255 -21 247.6 -32.5 246.9C-44 246.2 -56.6 252.3 -67 250.2C-77.5 248.1 -85.9 237.7 -96.4 232.8C-106.9 227.9 -119.5 228.4 -129 223.4C-138.5 218.5 -145 208 -154.3 201.1C-163.7 194.2 -175.9 190.9 -182.8 182.8C-189.7 174.6 -191.4 161.6 -199.5 153.1C-207.7 144.6 -222.3 140.6 -226.9 131C-231.5 121.4 -226 106.4 -230.5 95.5C-235 84.6 -249.4 77.8 -253.6 67.9C-257.7 58 -251.6 44.9 -251.3 33.1C-251.1 21.2 -256.8 10.6 -262.5 0L0 0Z" fill="#c5574c"></path><path d="M0 196.9C-7.9 191.3 -15.7 185.7 -24.4 185.2C-33 184.6 -42.4 189.2 -50.3 187.6C-58.1 186 -64.5 178.3 -72.3 174.6C-80.2 170.9 -89.6 171.3 -96.7 167.6C-103.9 163.8 -108.7 156 -115.7 150.8C-122.7 145.7 -131.9 143.2 -137.1 137.1C-142.3 131 -143.5 121.2 -149.6 114.8C-155.8 108.4 -166.7 105.4 -170.2 98.3C-173.6 91.1 -169.5 79.8 -172.9 71.6C-176.2 63.4 -187.1 58.4 -190.2 51C-193.3 43.5 -188.7 33.7 -188.5 24.8C-188.3 15.9 -192.6 8 -196.9 0L0 0Z" fill="#e17646"></path><path d="M0 131.3C-5.2 127.5 -10.5 123.8 -16.3 123.4C-22 123.1 -28.3 126.1 -33.5 125.1C-38.8 124 -43 118.9 -48.2 116.4C-53.5 114 -59.7 114.2 -64.5 111.7C-69.3 109.2 -72.5 104 -77.2 100.6C-81.8 97.1 -87.9 95.5 -91.4 91.4C-94.9 87.3 -95.7 80.8 -99.8 76.6C-103.8 72.3 -111.2 70.3 -113.4 65.5C-115.7 60.7 -113 53.2 -115.3 47.7C-117.5 42.3 -124.7 38.9 -126.8 34C-128.8 29 -125.8 22.5 -125.7 16.5C-125.6 10.6 -128.4 5.3 -131.2 0L0 0Z" fill="#f59a3f"></path><path d="M0 65.6C-2.6 63.8 -5.2 61.9 -8.1 61.7C-11 61.5 -14.1 63.1 -16.8 62.5C-19.4 62 -21.5 59.4 -24.1 58.2C-26.7 57 -29.9 57.1 -32.2 55.9C-34.6 54.6 -36.2 52 -38.6 50.3C-40.9 48.6 -44 47.7 -45.7 45.7C-47.4 43.7 -47.8 40.4 -49.9 38.3C-51.9 36.1 -55.6 35.1 -56.7 32.8C-57.9 30.4 -56.5 26.6 -57.6 23.9C-58.7 21.1 -62.4 19.5 -63.4 17C-64.4 14.5 -62.9 11.2 -62.8 8.3C-62.8 5.3 -64.2 2.7 -65.6 0L0 0Z" fill="#fbae3c"></path></g><g transform="translate(0, 1611)"><path d="M0 -525C22.3 -517.5 44.5 -510.1 66.4 -504.6C88.3 -499.2 109.9 -495.8 131.7 -491.7C153.6 -487.5 175.7 -482.5 196.7 -474.9C217.7 -467.3 237.5 -457 258.5 -447.7C279.5 -438.5 301.6 -430.2 319.6 -416.5C337.6 -402.8 351.4 -383.7 366.3 -366.3C381.2 -348.8 397.1 -333 411.8 -315.9C426.4 -298.9 439.9 -280.6 452.9 -261.5C465.9 -242.4 478.5 -222.5 483.2 -200.1C487.9 -177.8 484.7 -153 486.8 -130.4C489 -107.9 496.4 -87.7 503.7 -66.3C510.9 -44.9 518 -22.5 525 0L0 0Z" fill="#2c0f2c"></path><path d="M0 -459.4C19.5 -452.8 39 -446.3 58.1 -441.6C77.3 -436.8 96.2 -433.9 115.3 -430.2C134.4 -426.5 153.8 -422.2 172.1 -415.5C190.5 -408.8 207.8 -399.9 226.2 -391.8C244.5 -383.7 263.9 -376.4 279.6 -364.4C295.4 -352.5 307.5 -335.8 320.5 -320.5C333.5 -305.2 347.4 -291.4 360.3 -276.5C373.1 -261.5 384.9 -245.5 396.3 -228.8C407.7 -212.1 418.7 -194.7 422.8 -175.1C426.9 -155.6 424.1 -133.9 426 -114.1C427.8 -94.4 434.4 -76.7 440.7 -58C447 -39.3 453.2 -19.7 459.4 0L0 0Z" fill="#521c3d"></path><path d="M0 -393.7C16.7 -388.2 33.4 -382.6 49.8 -378.5C66.3 -374.4 82.4 -371.9 98.8 -368.7C115.2 -365.6 131.8 -361.9 147.5 -356.2C163.3 -350.4 178.1 -342.8 193.9 -335.8C209.6 -328.9 226.2 -322.6 239.7 -312.4C253.2 -302.1 263.6 -287.8 274.7 -274.7C285.9 -261.6 297.8 -249.8 308.8 -237C319.8 -224.2 329.9 -210.4 339.7 -196.1C349.5 -181.8 358.9 -166.9 362.4 -150.1C365.9 -133.3 363.5 -114.7 365.1 -97.8C366.7 -80.9 372.3 -65.8 377.7 -49.7C383.2 -33.7 388.5 -16.9 393.8 0L0 0Z" fill="#7a2a49"></path><path d="M0 -328.1C13.9 -323.5 27.8 -318.8 41.5 -315.4C55.2 -312 68.7 -309.9 82.3 -307.3C96 -304.7 109.8 -301.6 122.9 -296.8C136.1 -292 148.4 -285.6 161.6 -279.8C174.7 -274 188.5 -268.9 199.7 -260.3C211 -251.8 219.6 -239.8 228.9 -228.9C238.2 -218 248.2 -208.1 257.3 -197.5C266.5 -186.8 274.9 -175.4 283.1 -163.4C291.2 -151.5 299.1 -139.1 302 -125.1C304.9 -111.1 302.9 -95.6 304.3 -81.5C305.6 -67.4 310.3 -54.8 314.8 -41.4C319.3 -28.1 323.7 -14 328.1 0L0 0Z" fill="#a23d4d"></path><path d="M0 -262.5C11.1 -258.8 22.3 -255 33.2 -252.3C44.2 -249.6 54.9 -247.9 65.9 -245.8C76.8 -243.7 87.9 -241.2 98.3 -237.4C108.8 -233.6 118.8 -228.5 129.2 -223.9C139.7 -219.2 150.8 -215.1 159.8 -208.3C168.8 -201.4 175.7 -191.9 183.1 -183.1C190.6 -174.4 198.5 -166.5 205.9 -158C213.2 -149.4 220 -140.3 226.5 -130.8C233 -121.2 239.3 -111.3 241.6 -100.1C243.9 -88.9 242.3 -76.5 243.4 -65.2C244.5 -54 248.2 -43.8 251.8 -33.2C255.5 -22.5 259 -11.2 262.5 0L0 0Z" fill="#c5574c"></path><path d="M0 -196.9C8.3 -194.1 16.7 -191.3 24.9 -189.2C33.1 -187.2 41.2 -185.9 49.4 -184.4C57.6 -182.8 65.9 -180.9 73.8 -178.1C81.6 -175.2 89.1 -171.4 96.9 -167.9C104.8 -164.4 113.1 -161.3 119.8 -156.2C126.6 -151.1 131.8 -143.9 137.4 -137.4C142.9 -130.8 148.9 -124.9 154.4 -118.5C159.9 -112.1 165 -105.2 169.8 -98.1C174.7 -90.9 179.4 -83.4 181.2 -75.1C183 -66.7 181.8 -57.4 182.6 -48.9C183.4 -40.5 186.2 -32.9 188.9 -24.9C191.6 -16.9 194.2 -8.4 196.9 0L0 0Z" fill="#e17646"></path><path d="M0 -131.2C5.6 -129.4 11.1 -127.5 16.6 -126.2C22.1 -124.8 27.5 -124 32.9 -122.9C38.4 -121.9 43.9 -120.6 49.2 -118.7C54.4 -116.8 59.4 -114.3 64.6 -111.9C69.9 -109.6 75.4 -107.5 79.9 -104.1C84.4 -100.7 87.9 -95.9 91.6 -91.6C95.3 -87.2 99.3 -83.3 102.9 -79C106.6 -74.7 110 -70.1 113.2 -65.4C116.5 -60.6 119.6 -55.6 120.8 -50C122 -44.4 121.2 -38.2 121.7 -32.6C122.2 -27 124.1 -21.9 125.9 -16.6C127.7 -11.2 129.5 -5.6 131.3 0L0 0Z" fill="#f59a3f"></path><path d="M0 -65.6C2.8 -64.7 5.6 -63.8 8.3 -63.1C11 -62.4 13.7 -62 16.5 -61.5C19.2 -60.9 22 -60.3 24.6 -59.4C27.2 -58.4 29.7 -57.1 32.3 -56C34.9 -54.8 37.7 -53.8 39.9 -52.1C42.2 -50.4 43.9 -48 45.8 -45.8C47.6 -43.6 49.6 -41.6 51.5 -39.5C53.3 -37.4 55 -35.1 56.6 -32.7C58.2 -30.3 59.8 -27.8 60.4 -25C61 -22.2 60.6 -19.1 60.9 -16.3C61.1 -13.5 62.1 -11 63 -8.3C63.9 -5.6 64.7 -2.8 65.6 0L0 0Z" fill="#fbae3c"></path></g></svg>