<svg width="125" height="32" viewBox="0 0 125 32" fill="none" xmlns="http://www.w3.org/2000/svg">
<path d="M10.44 5.38L10.56 4.45C10.56 3.53 10.2 2.94 9.48 2.68C8.92 2.5 8.49 2.41 8.19 2.41H8.16C7.56 2.41 7.04 2.51 6.6 2.71C6.16 2.89 5.84 3.12 5.64 3.4C5.22 3.98 4.98 4.59 4.92 5.23C4.92 5.99 5.26 6.65 5.94 7.21C6.62 7.75 7.44 8.23 8.4 8.65C9.38 9.05 10.35 9.49 11.31 9.97C12.29 10.45 13.12 11.14 13.8 12.04C14.48 12.94 14.82 14.02 14.82 15.28C14.82 17.74 14.04 19.58 12.48 20.8C10.94 22.02 9.18 22.63 7.2 22.63C5.24 22.63 3.61 22.19 2.31 21.31C1.03 20.41 0.39 19.21 0.39 17.71V17.68C0.39 16.94 0.5 16.3 0.72 15.76C0.96 15.2 1.24 14.79 1.56 14.53C2.22 13.99 2.82 13.7 3.36 13.66L3.72 13.63C4.28 13.63 4.79 13.77 5.25 14.05C5.71 14.31 5.94 14.68 5.94 15.16C5.94 15.4 5.81 15.6 5.55 15.76C5.29 15.92 5.06 16.16 4.86 16.48C4.68 16.8 4.58 17.07 4.56 17.29L4.5 17.62C4.5 18.84 5.06 19.65 6.18 20.05C6.58 20.19 6.9 20.26 7.14 20.26C8.24 20.26 9.12 19.93 9.78 19.27C10.46 18.61 10.8 17.77 10.8 16.75C10.8 15.53 10.28 14.54 9.24 13.78C8.46 13.22 7.61 12.75 6.69 12.37C5.79 11.99 5.18 11.72 4.86 11.56C4.54 11.4 4.2 11.21 3.84 10.99C3.48 10.77 3.08 10.46 2.64 10.06C1.68 9.22 1.2 8.09 1.2 6.67C1.2 5.23 1.59 4.02 2.37 3.04C3.77 1.26 5.87 0.37 8.67 0.37C10.15 0.37 11.4 0.659999 12.42 1.24C13.44 1.8 13.95 2.58 13.95 3.58C13.95 4.3 13.74 4.9 13.32 5.38C12.92 5.86 12.4 6.1 11.76 6.1C11.46 6.1 11.16 6.04 10.86 5.92C10.58 5.8 10.44 5.62 10.44 5.38ZM19.283 5.95L18.563 5.92C18.023 5.92 17.673 6.05 17.513 6.31C17.473 6.37 17.423 6.4 17.363 6.4C17.103 6.4 16.973 5.96 16.973 5.08C16.973 4.18 17.103 3.61 17.363 3.37C17.643 3.13 18.113 3.01 18.773 3.01C19.453 3.01 19.913 3.13 20.153 3.37C20.393 3.59 20.513 3.97 20.513 4.51C20.513 5.05 20.423 5.43 20.243 5.65C20.063 5.85 19.743 5.95 19.283 5.95ZM16.883 21.1L17.213 14.11C17.213 12.45 17.023 11.32 16.643 10.72C16.523 10.52 16.383 10.37 16.223 10.27C16.103 10.23 16.043 10.15 16.043 10.03C16.043 9.67 16.553 9.32 17.573 8.98C18.593 8.64 19.333 8.47 19.793 8.47C20.273 8.47 20.523 8.59 20.543 8.83C20.543 9.23 20.483 10.37 20.363 12.25C20.263 14.11 20.213 16.07 20.213 18.13C20.213 20.19 20.333 21.47 20.573 21.97C20.633 22.07 20.663 22.17 20.663 22.27C20.663 22.53 20.283 22.66 19.523 22.66C18.763 22.66 17.983 22.46 17.183 22.06C16.983 21.96 16.883 21.64 16.883 21.1ZM24.4718 9.91C24.9118 9.45 25.4918 9.07 26.2118 8.77C26.9318 8.45 27.6218 8.29 28.2818 8.29C28.9418 8.29 29.6118 8.44 30.2918 8.74C30.3718 8.74 30.4318 8.72 30.4718 8.68C30.9918 8.16 31.7518 7.9 32.7518 7.9C32.9918 7.9 33.1118 8.01 33.1118 8.23C33.1118 8.25 33.0918 8.34 33.0518 8.5C33.0118 8.66 32.9618 8.9 32.9018 9.22C32.8418 9.52 32.7918 9.89 32.7518 10.33C32.6118 11.47 32.5318 12.73 32.5118 14.11C32.5118 15.49 32.5118 16.87 32.5118 18.25L32.6018 24.55C32.6018 26.57 32.0818 28.25 31.0418 29.59C30.6218 30.13 29.9818 30.6 29.1218 31C28.2818 31.4 27.2918 31.6 26.1518 31.6C25.8918 31.44 25.7618 31.28 25.7618 31.12C25.7618 30.96 25.8718 30.83 26.0918 30.73C27.3518 30.15 28.2518 28.77 28.7918 26.59C29.3318 24.43 29.6018 21.14 29.6018 16.72L29.5418 12.52L29.4518 10.48C29.4518 10.3 29.1718 10.17 28.6118 10.09C27.8918 10.09 27.2818 10.33 26.7818 10.81C26.3018 11.27 25.9718 11.88 25.7918 12.64C25.4718 13.86 25.3118 14.92 25.3118 15.82C25.3118 16.7 25.4518 17.48 25.7318 18.16C26.0318 18.84 26.5418 19.18 27.2618 19.18C27.4618 19.18 27.6418 19.14 27.8018 19.06C27.9818 18.98 28.1018 18.94 28.1618 18.94C28.3618 18.94 28.4618 19.14 28.4618 19.54C28.4618 19.94 28.4318 20.27 28.3718 20.53C28.3118 20.77 28.1918 21.04 28.0118 21.34C27.6118 22 26.8318 22.33 25.6718 22.33C24.5118 22.33 23.6818 21.91 23.1818 21.07C22.6618 20.21 22.3618 19.44 22.2818 18.76C22.1618 17.74 22.1018 17.07 22.1018 16.75C22.1018 16.43 22.1018 16.18 22.1018 16C22.1218 15.8 22.1718 15.42 22.2518 14.86C22.3518 14.28 22.4718 13.74 22.6118 13.24C22.7718 12.72 23.0118 12.15 23.3318 11.53C23.6518 10.89 24.0318 10.35 24.4718 9.91ZM34.4742 22.21C34.8342 20.05 35.0142 17.46 35.0142 14.44C35.0142 11.42 34.9242 9.46 34.7442 8.56C34.7442 8.3 35.0442 8.17 35.6442 8.17C36.5642 8.17 37.1742 8.52 37.4742 9.22C37.4942 9.28 37.5442 9.31 37.6242 9.31C37.7042 9.31 37.7642 9.29 37.8042 9.25C38.4242 8.61 39.3842 8.29 40.6842 8.29C41.9842 8.29 43.0142 8.62 43.7742 9.28C44.5342 9.94 44.9142 10.9 44.9142 12.16C44.9142 12.92 44.8442 14 44.7042 15.4C44.5842 16.8 44.5242 17.84 44.5242 18.52C44.5242 20.14 44.7942 21.31 45.3342 22.03C45.4142 22.13 45.4542 22.23 45.4542 22.33C45.4542 22.59 45.1742 22.72 44.6142 22.72C42.1342 22.72 40.8942 21.62 40.8942 19.42C40.8942 18.58 41.0842 17.41 41.4642 15.91C41.8442 14.41 42.0342 13.27 42.0342 12.49C42.0342 10.89 41.3742 10.09 40.0542 10.09C39.4142 10.09 38.9242 10.28 38.5842 10.66C38.2642 11.04 38.0842 11.48 38.0442 11.98C38.0042 12.46 37.9842 13.38 37.9842 14.74C37.9842 16.82 38.0542 18.63 38.1942 20.17L38.2542 20.83C38.2542 21.39 37.8842 21.82 37.1442 22.12C36.4242 22.44 35.7942 22.6 35.2542 22.6C34.7342 22.6 34.4742 22.47 34.4742 22.21ZM59.4166 15.13C59.7966 15.13 59.9866 15.61 59.9866 16.57C59.9866 17.53 59.8066 18.39 59.4466 19.15C59.0866 19.91 58.6466 20.5 58.1266 20.92C57.6266 21.34 57.0566 21.68 56.4166 21.94C54.2766 22.88 52.2766 22.86 50.4166 21.88C49.4766 21.38 48.7566 20.79 48.2566 20.11C47.7566 19.41 47.3566 18.58 47.0566 17.62C46.5966 16.18 46.3666 14.67 46.3666 13.09C46.3666 11.51 46.5166 10.03 46.8166 8.65C47.1166 7.27 47.5766 5.96 48.1966 4.72C48.8166 3.46 49.6966 2.45 50.8366 1.69C51.9766 0.929999 53.2966 0.549999 54.7966 0.549999C55.4366 0.549999 56.0966 0.659999 56.7766 0.879998C57.4766 1.08 58.0466 1.34 58.4866 1.66C58.9266 1.96 59.3166 2.43 59.6566 3.07C59.9966 3.71 60.1666 4.46 60.1666 5.32C60.1666 6.24 59.9466 7.07 59.5066 7.81C59.3066 8.15 58.9866 8.46 58.5466 8.74C58.1066 9 57.5866 9.13 56.9866 9.13C56.0666 9.13 55.4166 8.72 55.0366 7.9C54.8766 7.58 54.7966 7.23 54.7966 6.85C54.7966 6.47 54.9266 6.25 55.1866 6.19C55.4666 6.11 55.7266 5.89 55.9666 5.53C56.2066 5.17 56.3266 4.75 56.3266 4.27C56.3266 3.89 56.2266 3.56 56.0266 3.28C55.6466 2.78 55.0966 2.53 54.3766 2.53C53.6566 2.53 52.9966 2.86 52.3966 3.52C51.8166 4.18 51.3766 5.01 51.0766 6.01C50.4766 8.01 50.1766 9.85 50.1766 11.53C50.1766 13.21 50.4066 14.56 50.8666 15.58C51.4266 16.84 52.1366 17.68 52.9966 18.1C53.5366 18.36 54.1566 18.49 54.8566 18.49C56.0366 18.49 57.0966 17.96 58.0366 16.9C58.4366 16.48 58.7666 15.98 59.0266 15.4C59.1266 15.22 59.2566 15.13 59.4166 15.13ZM64.5724 10.69C64.0524 10.71 63.6724 10.73 63.4324 10.75C63.2124 10.75 63.1024 10.69 63.1024 10.57C63.1024 10.45 63.1624 10.33 63.2824 10.21C64.5624 9.03 66.7224 8.44 69.7624 8.44C70.8024 8.44 71.6224 8.53 72.2224 8.71L72.5224 8.8C72.7624 8.9 72.8824 9.01 72.8824 9.13C72.8824 9.23 72.8124 9.31 72.6724 9.37C72.1324 9.53 71.6124 9.79 71.1124 10.15C70.6124 10.49 70.3624 10.73 70.3624 10.87L70.5424 11.08C71.1824 11.44 71.6724 12.01 72.0124 12.79C72.3724 13.57 72.5724 14.26 72.6124 14.86L72.6724 15.79C72.6724 17.77 72.1224 19.4 71.0224 20.68C69.9224 21.96 68.4224 22.6 66.5224 22.6C65.5624 22.6 64.7324 22.43 64.0324 22.09C63.3324 21.75 62.8124 21.37 62.4724 20.95C62.1524 20.51 61.8924 20.02 61.6924 19.48C61.4524 18.74 61.3324 17.98 61.3324 17.2C61.3324 16.4 61.4624 15.6 61.7224 14.8C62.0024 14 62.3124 13.41 62.6524 13.03C63.0124 12.65 63.4124 12.34 63.8524 12.1C64.4124 11.8 64.8624 11.65 65.2024 11.65C65.5424 11.65 65.7124 11.72 65.7124 11.86L65.5324 12.16C65.0924 12.68 64.7724 13.36 64.5724 14.2C64.3924 15.04 64.3024 15.79 64.3024 16.45C64.3024 17.09 64.3824 17.73 64.5424 18.37C64.7024 19.01 64.8824 19.49 65.0824 19.81C65.2824 20.11 65.5124 20.34 65.7724 20.5C66.1524 20.74 66.5524 20.86 66.9724 20.86C67.3924 20.86 67.8024 20.7 68.2024 20.38C68.6024 20.04 68.8924 19.6 69.0724 19.06C69.4324 18.06 69.6124 17.03 69.6124 15.97C69.6124 14.29 69.1824 12.99 68.3224 12.07C67.4824 11.15 66.2324 10.69 64.5724 10.69ZM84.8501 8.65C84.4901 10.81 84.3101 13.56 84.3101 16.9C84.3101 19.36 84.4101 20.98 84.6101 21.76L84.7301 22.15C84.7301 22.41 84.5101 22.54 84.0701 22.54C82.5301 22.54 81.6501 22.11 81.4301 21.25C81.4101 21.15 81.3601 21.1 81.2801 21.1C81.2201 21.1 81.1601 21.14 81.1001 21.22C80.4801 22.04 79.5201 22.45 78.2201 22.45C77.5001 22.45 76.7501 22.27 75.9701 21.91C75.4901 21.69 75.1001 21.31 74.8001 20.77C74.5001 20.21 74.3501 19.53 74.3501 18.73L74.8001 12.16C74.8001 10.78 74.6601 9.8 74.3801 9.22C74.2801 9 74.2301 8.86 74.2301 8.8C74.2301 8.68 74.2801 8.6 74.3801 8.56C74.7001 8.46 75.1101 8.41 75.6101 8.41C77.5501 8.41 78.5201 9.21 78.5201 10.81C78.5201 11.31 78.3101 12.45 77.8901 14.23C77.4901 16.01 77.2901 17.28 77.2901 18.04C77.2901 18.78 77.4501 19.35 77.7701 19.75C78.1101 20.15 78.5701 20.35 79.1501 20.35C79.7501 20.35 80.2201 20.14 80.5601 19.72C80.9001 19.3 81.1001 18.88 81.1601 18.46L81.2501 17.83C81.3301 17.13 81.3701 15.9 81.3701 14.14C81.3701 12.38 81.3101 11.27 81.1901 10.81C81.0901 10.33 81.0401 10.03 81.0401 9.91C81.0401 9.41 81.4401 9.02 82.2401 8.74C83.0401 8.44 83.7601 8.29 84.4001 8.29C84.7001 8.29 84.8501 8.41 84.8501 8.65ZM86.3004 22.21C86.6604 20.05 86.8404 17.46 86.8404 14.44C86.8404 11.42 86.7504 9.46 86.5704 8.56C86.5704 8.3 86.8704 8.17 87.4704 8.17C88.3904 8.17 89.0004 8.52 89.3004 9.22C89.3204 9.28 89.3704 9.31 89.4504 9.31C89.5304 9.31 89.5904 9.29 89.6304 9.25C90.2504 8.61 91.2104 8.29 92.5104 8.29C93.8104 8.29 94.8404 8.62 95.6004 9.28C96.3604 9.94 96.7404 10.9 96.7404 12.16C96.7404 12.92 96.6704 14 96.5304 15.4C96.4104 16.8 96.3504 17.84 96.3504 18.52C96.3504 20.14 96.6204 21.31 97.1604 22.03C97.2404 22.13 97.2804 22.23 97.2804 22.33C97.2804 22.59 97.0004 22.72 96.4404 22.72C93.9604 22.72 92.7204 21.62 92.7204 19.42C92.7204 18.58 92.9104 17.41 93.2904 15.91C93.6704 14.41 93.8604 13.27 93.8604 12.49C93.8604 10.89 93.2004 10.09 91.8804 10.09C91.2404 10.09 90.7504 10.28 90.4104 10.66C90.0904 11.04 89.9104 11.48 89.8704 11.98C89.8304 12.46 89.8104 13.38 89.8104 14.74C89.8104 16.82 89.8804 18.63 90.0204 20.17L90.0804 20.83C90.0804 21.39 89.7104 21.82 88.9704 22.12C88.2504 22.44 87.6204 22.6 87.0804 22.6C86.5604 22.6 86.3004 22.47 86.3004 22.21ZM97.8328 10.3L97.9228 9.1C97.9428 8.92 98.0828 8.83 98.3428 8.83H99.3928L99.2728 6.43V6.31C99.2728 5.85 99.6228 5.41 100.323 4.99C101.023 4.57 101.663 4.36 102.243 4.36C102.423 4.36 102.513 4.44 102.513 4.6V4.63C102.433 5.17 102.353 6.56 102.273 8.8C103.153 8.8 103.713 8.78 103.953 8.74C104.193 8.7 104.323 8.68 104.343 8.68C104.483 8.68 104.553 8.8 104.553 9.04C104.553 9.28 104.443 9.59 104.223 9.97C104.003 10.33 103.763 10.52 103.503 10.54H102.243C102.223 11.22 102.213 12.37 102.213 13.99C102.213 15.59 102.223 16.91 102.243 17.95C102.283 18.99 102.323 19.78 102.363 20.32C102.403 20.84 102.443 21.26 102.483 21.58C102.543 21.9 102.583 22.13 102.603 22.27C102.643 22.41 102.663 22.5 102.663 22.54C102.663 22.74 102.533 22.85 102.273 22.87C101.493 22.87 100.713 22.76 99.9328 22.54C99.1728 22.32 98.7928 21.94 98.7928 21.4C99.2128 18.04 99.4228 14.43 99.4228 10.57C98.8828 10.57 98.4728 10.59 98.1928 10.63H98.1628C97.9828 10.63 97.8728 10.52 97.8328 10.3ZM107.549 14.38L107.579 15.13C107.579 15.25 107.659 15.31 107.819 15.31C108.459 15.25 109.019 15.09 109.499 14.83C109.979 14.55 110.339 14.24 110.579 13.9C111.059 13.16 111.319 12.52 111.359 11.98L111.389 11.62C111.389 10.54 110.959 10 110.099 10C109.459 10 108.939 10.28 108.539 10.84C107.879 11.72 107.549 12.9 107.549 14.38ZM114.089 18.37C114.089 19.13 113.929 19.8 113.609 20.38C113.309 20.94 112.959 21.36 112.559 21.64C112.179 21.9 111.729 22.11 111.209 22.27C110.549 22.47 109.919 22.57 109.319 22.57C107.639 22.57 106.399 21.94 105.599 20.68C104.799 19.42 104.399 17.82 104.399 15.88C104.399 13.92 104.889 12.18 105.869 10.66C106.869 9.14 108.359 8.38 110.339 8.38C112.139 8.38 113.359 9.01 113.999 10.27C114.259 10.75 114.389 11.21 114.389 11.65C114.389 12.07 114.369 12.41 114.329 12.67C114.289 12.91 114.149 13.28 113.909 13.78C113.669 14.28 113.349 14.73 112.949 15.13C112.549 15.53 111.919 15.91 111.059 16.27C110.199 16.63 109.189 16.87 108.029 16.99C107.869 16.99 107.789 17.06 107.789 17.2C107.789 17.38 107.849 17.65 107.969 18.01C108.109 18.35 108.259 18.64 108.419 18.88C108.859 19.44 109.509 19.72 110.369 19.72C111.229 19.72 111.959 19.44 112.559 18.88C112.879 18.58 113.139 18.21 113.339 17.77C113.419 17.61 113.519 17.53 113.639 17.53C113.779 17.53 113.889 17.64 113.969 17.86C114.049 18.08 114.089 18.25 114.089 18.37ZM124.601 13.96L124.721 15.01C124.721 15.39 124.361 15.58 123.641 15.58C122.181 15.58 121.451 15.03 121.451 13.93C121.451 13.67 121.521 13.31 121.661 12.85C121.801 12.39 121.871 11.99 121.871 11.65C121.871 11.31 121.771 11.02 121.571 10.78C121.371 10.52 121.081 10.39 120.701 10.39C120.321 10.39 119.991 10.53 119.711 10.81C119.451 11.07 119.291 11.34 119.231 11.62L119.111 12.04C118.991 12.66 118.931 13.7 118.931 15.16C118.931 16.6 118.951 17.74 118.991 18.58C119.031 19.4 119.071 19.97 119.111 20.29C119.151 20.59 119.171 20.77 119.171 20.83C119.171 21.33 118.861 21.73 118.241 22.03C117.621 22.35 117.001 22.51 116.381 22.51C115.761 22.51 115.451 22.38 115.451 22.12L115.601 21.19C115.881 19.45 116.021 17.18 116.021 14.38C116.021 11.58 115.921 9.68 115.721 8.68C115.721 8.44 115.931 8.32 116.351 8.32C117.431 8.32 118.151 8.69 118.511 9.43C118.531 9.51 118.561 9.55 118.601 9.55C118.661 9.55 118.801 9.46 119.021 9.28C119.681 8.74 120.461 8.47 121.361 8.47C121.921 8.47 122.481 8.58 123.041 8.8C124.181 9.26 124.751 10.22 124.751 11.68L124.601 13.96Z" fill="white"/>
</svg>
