<svg id="visual" viewBox="0 0 675 1111" width="675" height="1111" xmlns="http://www.w3.org/2000/svg" xmlns:xlink="http://www.w3.org/1999/xlink" version="1.1"><rect x="0" y="0" width="675" height="1111" fill="#1C0522"></rect><defs><linearGradient id="grad1_0" x1="0%" y1="0%" x2="100%" y2="100%"><stop offset="30%" stop-color="#fbae3c" stop-opacity="1"></stop><stop offset="70%" stop-color="#fbae3c" stop-opacity="1"></stop></linearGradient></defs><defs><linearGradient id="grad1_1" x1="0%" y1="0%" x2="100%" y2="100%"><stop offset="30%" stop-color="#fbae3c" stop-opacity="1"></stop><stop offset="70%" stop-color="#ec8843" stop-opacity="1"></stop></linearGradient></defs><defs><linearGradient id="grad1_2" x1="0%" y1="0%" x2="100%" y2="100%"><stop offset="30%" stop-color="#d4664a" stop-opacity="1"></stop><stop offset="70%" stop-color="#ec8843" stop-opacity="1"></stop></linearGradient></defs><defs><linearGradient id="grad1_3" x1="0%" y1="0%" x2="100%" y2="100%"><stop offset="30%" stop-color="#d4664a" stop-opacity="1"></stop><stop offset="70%" stop-color="#b4494d" stop-opacity="1"></stop></linearGradient></defs><defs><linearGradient id="grad1_4" x1="0%" y1="0%" x2="100%" y2="100%"><stop offset="30%" stop-color="#8e334c" stop-opacity="1"></stop><stop offset="70%" stop-color="#b4494d" stop-opacity="1"></stop></linearGradient></defs><defs><linearGradient id="grad1_5" x1="0%" y1="0%" x2="100%" y2="100%"><stop offset="30%" stop-color="#8e334c" stop-opacity="1"></stop><stop offset="70%" stop-color="#662244" stop-opacity="1"></stop></linearGradient></defs><defs><linearGradient id="grad1_6" x1="0%" y1="0%" x2="100%" y2="100%"><stop offset="30%" stop-color="#3e1536" stop-opacity="1"></stop><stop offset="70%" stop-color="#662244" stop-opacity="1"></stop></linearGradient></defs><defs><linearGradient id="grad1_7" x1="0%" y1="0%" x2="100%" y2="100%"><stop offset="30%" stop-color="#3e1536" stop-opacity="1"></stop><stop offset="70%" stop-color="#1c0522" stop-opacity="1"></stop></linearGradient></defs><defs><linearGradient id="grad2_0" x1="0%" y1="0%" x2="100%" y2="100%"><stop offset="30%" stop-color="#fbae3c" stop-opacity="1"></stop><stop offset="70%" stop-color="#fbae3c" stop-opacity="1"></stop></linearGradient></defs><defs><linearGradient id="grad2_1" x1="0%" y1="0%" x2="100%" y2="100%"><stop offset="30%" stop-color="#ec8843" stop-opacity="1"></stop><stop offset="70%" stop-color="#fbae3c" stop-opacity="1"></stop></linearGradient></defs><defs><linearGradient id="grad2_2" x1="0%" y1="0%" x2="100%" y2="100%"><stop offset="30%" stop-color="#ec8843" stop-opacity="1"></stop><stop offset="70%" stop-color="#d4664a" stop-opacity="1"></stop></linearGradient></defs><defs><linearGradient id="grad2_3" x1="0%" y1="0%" x2="100%" y2="100%"><stop offset="30%" stop-color="#b4494d" stop-opacity="1"></stop><stop offset="70%" stop-color="#d4664a" stop-opacity="1"></stop></linearGradient></defs><defs><linearGradient id="grad2_4" x1="0%" y1="0%" x2="100%" y2="100%"><stop offset="30%" stop-color="#b4494d" stop-opacity="1"></stop><stop offset="70%" stop-color="#8e334c" stop-opacity="1"></stop></linearGradient></defs><defs><linearGradient id="grad2_5" x1="0%" y1="0%" x2="100%" y2="100%"><stop offset="30%" stop-color="#662244" stop-opacity="1"></stop><stop offset="70%" stop-color="#8e334c" stop-opacity="1"></stop></linearGradient></defs><defs><linearGradient id="grad2_6" x1="0%" y1="0%" x2="100%" y2="100%"><stop offset="30%" stop-color="#662244" stop-opacity="1"></stop><stop offset="70%" stop-color="#3e1536" stop-opacity="1"></stop></linearGradient></defs><defs><linearGradient id="grad2_7" x1="0%" y1="0%" x2="100%" y2="100%"><stop offset="30%" stop-color="#1c0522" stop-opacity="1"></stop><stop offset="70%" stop-color="#3e1536" stop-opacity="1"></stop></linearGradient></defs><g transform="translate(675, 0)"><path d="M0 585C-25.4 581 -50.7 577 -75.2 571.1C-99.7 565.2 -123.3 557.4 -148 552.5C-172.8 547.7 -198.8 545.8 -222.7 537.7C-246.7 529.6 -268.6 515.4 -288.5 499.7C-308.4 484 -326.2 466.8 -348.2 453.8C-370.3 440.8 -396.6 431.9 -413.7 413.7C-430.7 395.4 -438.6 367.9 -448.2 344C-457.9 320 -469.4 299.5 -485 280C-500.6 260.5 -520.2 241.9 -529.4 219.3C-538.5 196.7 -537.2 170.2 -544.8 146C-552.4 121.8 -568.8 99.9 -577 76C-585.2 52 -585.1 26 -585 0L0 0Z" fill="#2c0f2c"></path><path d="M0 511.9C-22.2 508.4 -44.4 504.9 -65.8 499.7C-87.2 494.5 -107.9 487.7 -129.5 483.4C-151.2 479.2 -173.9 477.5 -194.9 470.5C-215.8 463.4 -235 451 -252.4 437.2C-269.8 423.5 -285.4 408.5 -304.7 397.1C-324 385.7 -347 377.9 -361.9 361.9C-376.9 346 -383.8 321.9 -392.2 301C-400.7 280 -410.7 262.1 -424.4 245C-438 227.9 -455.2 211.6 -463.2 191.9C-471.2 172.1 -470.1 148.9 -476.7 127.7C-483.3 106.6 -497.7 87.4 -504.9 66.5C-512.1 45.5 -512 22.8 -511.9 0L0 0Z" fill="#521c3d"></path><path d="M0 438.7C-19 435.7 -38 432.7 -56.4 428.3C-74.7 423.9 -92.5 418 -111 414.4C-129.6 410.7 -149.1 409.3 -167 403.3C-185 397.2 -201.5 386.5 -216.4 374.8C-231.3 363 -244.6 350.1 -261.2 340.3C-277.7 330.6 -297.4 323.9 -310.2 310.2C-323 296.6 -328.9 275.9 -336.2 258C-343.4 240 -352 224.6 -363.7 210C-375.4 195.4 -390.2 181.4 -397 164.5C-403.9 147.5 -402.9 127.6 -408.6 109.5C-414.3 91.3 -426.6 74.9 -432.8 57C-438.9 39 -438.8 19.5 -438.7 0L0 0Z" fill="#7a2a49"></path><path d="M0 365.6C-15.8 363.1 -31.7 360.6 -47 356.9C-62.3 353.2 -77 348.4 -92.5 345.3C-108 342.3 -124.2 341.1 -139.2 336.1C-154.2 331 -167.9 322.1 -180.3 312.3C-192.7 302.5 -203.9 291.8 -217.6 283.6C-231.4 275.5 -247.9 269.9 -258.5 258.5C-269.2 247.2 -274.1 230 -280.2 215C-286.2 200 -293.4 187.2 -303.1 175C-312.8 162.8 -325.1 151.2 -330.9 137C-336.6 122.9 -335.8 106.4 -340.5 91.2C-345.2 76.1 -355.5 62.4 -360.6 47.5C-365.8 32.5 -365.7 16.3 -365.6 0L0 0Z" fill="#a23d4d"></path><path d="M0 292.5C-12.7 290.5 -25.4 288.5 -37.6 285.5C-49.8 282.6 -61.6 278.7 -74 276.3C-86.4 273.8 -99.4 272.9 -111.4 268.8C-123.3 264.8 -134.3 257.7 -144.2 249.8C-154.2 242 -163.1 233.4 -174.1 226.9C-185.1 220.4 -198.3 215.9 -206.8 206.8C-215.4 197.7 -219.3 184 -224.1 172C-229 160 -234.7 149.8 -242.5 140C-250.3 130.2 -260.1 120.9 -264.7 109.6C-269.3 98.4 -268.6 85.1 -272.4 73C-276.2 60.9 -284.4 50 -288.5 38C-292.6 26 -292.5 13 -292.5 0L0 0Z" fill="#c5574c"></path><path d="M0 219.4C-9.5 217.9 -19 216.4 -28.2 214.2C-37.4 211.9 -46.2 209 -55.5 207.2C-64.8 205.4 -74.5 204.7 -83.5 201.6C-92.5 198.6 -100.7 193.3 -108.2 187.4C-115.6 181.5 -122.3 175.1 -130.6 170.2C-138.8 165.3 -148.7 161.9 -155.1 155.1C-161.5 148.3 -164.5 138 -168.1 129C-171.7 120 -176 112.3 -181.9 105C-187.7 97.7 -195.1 90.7 -198.5 82.2C-202 73.8 -201.5 63.8 -204.3 54.7C-207.1 45.7 -213.3 37.5 -216.4 28.5C-219.5 19.5 -219.4 9.8 -219.4 0L0 0Z" fill="#e17646"></path><path d="M0 146.2C-6.3 145.2 -12.7 144.2 -18.8 142.8C-24.9 141.3 -30.8 139.3 -37 138.1C-43.2 136.9 -49.7 136.4 -55.7 134.4C-61.7 132.4 -67.2 128.8 -72.1 124.9C-77.1 121 -81.5 116.7 -87.1 113.4C-92.6 110.2 -99.1 108 -103.4 103.4C-107.7 98.9 -109.6 92 -112.1 86C-114.5 80 -117.3 74.9 -121.2 70C-125.1 65.1 -130.1 60.5 -132.3 54.8C-134.6 49.2 -134.3 42.5 -136.2 36.5C-138.1 30.4 -142.2 25 -144.3 19C-146.3 13 -146.3 6.5 -146.2 0L0 0Z" fill="#f59a3f"></path><path d="M0 73.1C-3.2 72.6 -6.3 72.1 -9.4 71.4C-12.5 70.6 -15.4 69.7 -18.5 69.1C-21.6 68.5 -24.8 68.2 -27.8 67.2C-30.8 66.2 -33.6 64.4 -36.1 62.5C-38.5 60.5 -40.8 58.4 -43.5 56.7C-46.3 55.1 -49.6 54 -51.7 51.7C-53.8 49.4 -54.8 46 -56 43C-57.2 40 -58.7 37.4 -60.6 35C-62.6 32.6 -65 30.2 -66.2 27.4C-67.3 24.6 -67.2 21.3 -68.1 18.2C-69 15.2 -71.1 12.5 -72.1 9.5C-73.2 6.5 -73.1 3.3 -73.1 0L0 0Z" fill="#fbae3c"></path></g><g transform="translate(0, 1111)"><path d="M0 -585C24.4 -573.9 48.7 -562.8 73.5 -558.2C98.2 -553.5 123.4 -555.4 148 -552.5C172.7 -549.6 196.8 -542.1 221.6 -534.9C246.3 -527.7 271.7 -520.9 292.5 -506.6C313.3 -492.3 329.6 -470.5 346.4 -451.4C363.2 -432.3 380.5 -415.8 400.2 -400.2C420 -384.6 442.2 -369.9 454.6 -348.8C467 -327.7 469.5 -300.2 482.4 -278.5C495.3 -256.8 518.6 -241.1 529.4 -219.3C540.1 -197.5 538.2 -169.7 539 -144.4C539.7 -119.1 543.1 -96.2 551.2 -72.6C559.4 -48.9 572.2 -24.5 585 0L0 0Z" fill="#2c0f2c"></path><path d="M0 -511.9C21.3 -502.2 42.6 -492.5 64.3 -488.4C86 -484.4 108 -485.9 129.5 -483.4C151.1 -480.9 172.2 -474.3 193.9 -468.1C215.5 -461.8 237.7 -455.8 255.9 -443.3C274.2 -430.8 288.4 -411.7 303.1 -395C317.8 -378.3 332.9 -363.8 350.2 -350.2C367.5 -336.6 386.9 -323.7 397.8 -305.2C408.6 -286.7 410.8 -262.6 422.1 -243.7C433.4 -224.7 453.8 -210.9 463.2 -191.9C472.6 -172.8 471 -148.5 471.6 -126.4C472.3 -104.2 475.2 -84.2 482.3 -63.5C489.4 -42.8 500.6 -21.4 511.9 0L0 0Z" fill="#521c3d"></path><path d="M0 -438.7C18.3 -430.4 36.5 -422.1 55.1 -418.6C73.7 -415.2 92.5 -416.5 111 -414.4C129.5 -412.2 147.6 -406.6 166.2 -401.2C184.7 -395.8 203.8 -390.7 219.4 -380C235 -369.2 247.2 -352.9 259.8 -338.6C272.4 -324.2 285.3 -311.9 300.2 -300.2C315 -288.5 331.7 -277.5 340.9 -261.6C350.2 -245.8 352.1 -225.1 361.8 -208.9C371.5 -192.6 389 -180.8 397 -164.5C405.1 -148.1 403.7 -127.3 404.2 -108.3C404.8 -89.3 407.4 -72.2 413.4 -54.4C419.5 -36.7 429.1 -18.3 438.7 0L0 0Z" fill="#7a2a49"></path><path d="M0 -365.6C15.2 -358.7 30.5 -351.8 45.9 -348.9C61.4 -346 77.1 -347.1 92.5 -345.3C107.9 -343.5 123 -338.8 138.5 -334.3C154 -329.8 169.8 -325.6 182.8 -316.6C195.8 -307.7 206 -294.1 216.5 -282.1C227 -270.2 237.8 -259.9 250.1 -250.1C262.5 -240.4 276.4 -231.2 284.1 -218C291.8 -204.8 293.4 -187.6 301.5 -174.1C309.6 -160.5 324.2 -150.7 330.9 -137C337.6 -123.4 336.4 -106.1 336.9 -90.3C337.3 -74.4 339.5 -60.1 344.5 -45.4C349.6 -30.6 357.6 -15.3 365.6 0L0 0Z" fill="#a23d4d"></path><path d="M0 -292.5C12.2 -287 24.4 -281.4 36.7 -279.1C49.1 -276.8 61.7 -277.7 74 -276.3C86.3 -274.8 98.4 -271.1 110.8 -267.5C123.2 -263.9 135.8 -260.5 146.2 -253.3C156.7 -246.2 164.8 -235.3 173.2 -225.7C181.6 -216.1 190.2 -207.9 200.1 -200.1C210 -192.3 221.1 -185 227.3 -174.4C233.5 -163.9 234.7 -150.1 241.2 -139.3C247.6 -128.4 259.3 -120.5 264.7 -109.6C270.1 -98.8 269.1 -84.9 269.5 -72.2C269.9 -59.6 271.6 -48.1 275.6 -36.3C279.7 -24.5 286.1 -12.2 292.5 0L0 0Z" fill="#c5574c"></path><path d="M0 -219.4C9.1 -215.2 18.3 -211.1 27.6 -209.3C36.8 -207.6 46.3 -208.3 55.5 -207.2C64.8 -206.1 73.8 -203.3 83.1 -200.6C92.4 -197.9 101.9 -195.3 109.7 -190C117.5 -184.6 123.6 -176.5 129.9 -169.3C136.2 -162.1 142.7 -155.9 150.1 -150.1C157.5 -144.2 165.8 -138.7 170.5 -130.8C175.1 -122.9 176 -112.6 180.9 -104.4C185.7 -96.3 194.5 -90.4 198.5 -82.2C202.5 -74.1 201.8 -63.7 202.1 -54.2C202.4 -44.7 203.7 -36.1 206.7 -27.2C209.8 -18.3 214.6 -9.2 219.4 0L0 0Z" fill="#e17646"></path><path d="M0 -146.2C6.1 -143.5 12.2 -140.7 18.4 -139.5C24.6 -138.4 30.8 -138.8 37 -138.1C43.2 -137.4 49.2 -135.5 55.4 -133.7C61.6 -131.9 67.9 -130.2 73.1 -126.7C78.3 -123.1 82.4 -117.6 86.6 -112.9C90.8 -108.1 95.1 -104 100.1 -100.1C105 -96.2 110.6 -92.5 113.6 -87.2C116.7 -81.9 117.4 -75 120.6 -69.6C123.8 -64.2 129.7 -60.3 132.3 -54.8C135 -49.4 134.6 -42.4 134.7 -36.1C134.9 -29.8 135.8 -24.1 137.8 -18.1C139.8 -12.2 143 -6.1 146.2 0L0 0Z" fill="#f59a3f"></path><path d="M0 -73.1C3 -71.7 6.1 -70.4 9.2 -69.8C12.3 -69.2 15.4 -69.4 18.5 -69.1C21.6 -68.7 24.6 -67.8 27.7 -66.9C30.8 -66 34 -65.1 36.6 -63.3C39.2 -61.5 41.2 -58.8 43.3 -56.4C45.4 -54 47.6 -52 50 -50C52.5 -48.1 55.3 -46.2 56.8 -43.6C58.4 -41 58.7 -37.5 60.3 -34.8C61.9 -32.1 64.8 -30.1 66.2 -27.4C67.5 -24.7 67.3 -21.2 67.4 -18.1C67.5 -14.9 67.9 -12 68.9 -9.1C69.9 -6.1 71.5 -3.1 73.1 0L0 0Z" fill="#fbae3c"></path></g></svg>