<svg id="visual" viewBox="0 0 2500 271" width="2500" height="271" xmlns="http://www.w3.org/2000/svg" xmlns:xlink="http://www.w3.org/1999/xlink" version="1.1"><rect x="0" y="0" width="2500" height="271" fill="#1C0522"></rect><path d="M0 84L19.8 71.8C39.7 59.7 79.3 35.3 119 21.5C158.7 7.7 198.3 4.3 238 16.2C277.7 28 317.3 55 357 68.8C396.7 82.7 436.3 83.3 476 86.3C515.7 89.3 555.3 94.7 595 94.5C634.7 94.3 674.3 88.7 714 75C753.7 61.3 793.3 39.7 833 37.2C872.7 34.7 912.3 51.3 952 65.8C991.7 80.3 1031.3 92.7 1071 83C1110.7 73.3 1150.3 41.7 1190.2 31.3C1230 21 1270 32 1309.8 30.8C1349.7 29.7 1389.3 16.3 1429 10C1468.7 3.7 1508.3 4.3 1548 9.3C1587.7 14.3 1627.3 23.7 1667 25.3C1706.7 27 1746.3 21 1786 32.2C1825.7 43.3 1865.3 71.7 1905 73.2C1944.7 74.7 1984.3 49.3 2024 38.8C2063.7 28.3 2103.3 32.7 2143 42.2C2182.7 51.7 2222.3 66.3 2262 63C2301.7 59.7 2341.3 38.3 2381 39.7C2420.7 41 2460.3 65 2480.2 77L2500 89L2500 272L2480.2 272C2460.3 272 2420.7 272 2381 272C2341.3 272 2301.7 272 2262 272C2222.3 272 2182.7 272 2143 272C2103.3 272 2063.7 272 2024 272C1984.3 272 1944.7 272 1905 272C1865.3 272 1825.7 272 1786 272C1746.3 272 1706.7 272 1667 272C1627.3 272 1587.7 272 1548 272C1508.3 272 1468.7 272 1429 272C1389.3 272 1349.7 272 1309.8 272C1270 272 1230 272 1190.2 272C1150.3 272 1110.7 272 1071 272C1031.3 272 991.7 272 952 272C912.3 272 872.7 272 833 272C793.3 272 753.7 272 714 272C674.3 272 634.7 272 595 272C555.3 272 515.7 272 476 272C436.3 272 396.7 272 357 272C317.3 272 277.7 272 238 272C198.3 272 158.7 272 119 272C79.3 272 39.7 272 19.8 272L0 272Z" fill="#1c0522"></path><path d="M0 59L19.8 68.2C39.7 77.3 79.3 95.7 119 96.2C158.7 96.7 198.3 79.3 238 81.2C277.7 83 317.3 104 357 114.5C396.7 125 436.3 125 476 125.2C515.7 125.3 555.3 125.7 595 112.8C634.7 100 674.3 74 714 66.5C753.7 59 793.3 70 833 77.3C872.7 84.7 912.3 88.3 952 95.7C991.7 103 1031.3 114 1071 107.2C1110.7 100.3 1150.3 75.7 1190.2 66.8C1230 58 1270 65 1309.8 79.8C1349.7 94.7 1389.3 117.3 1429 125.3C1468.7 133.3 1508.3 126.7 1548 119.8C1587.7 113 1627.3 106 1667 98.2C1706.7 90.3 1746.3 81.7 1786 78.8C1825.7 76 1865.3 79 1905 83.8C1944.7 88.7 1984.3 95.3 2024 100.2C2063.7 105 2103.3 108 2143 114.3C2182.7 120.7 2222.3 130.3 2262 126.7C2301.7 123 2341.3 106 2381 93.7C2420.7 81.3 2460.3 73.7 2480.2 69.8L2500 66L2500 272L2480.2 272C2460.3 272 2420.7 272 2381 272C2341.3 272 2301.7 272 2262 272C2222.3 272 2182.7 272 2143 272C2103.3 272 2063.7 272 2024 272C1984.3 272 1944.7 272 1905 272C1865.3 272 1825.7 272 1786 272C1746.3 272 1706.7 272 1667 272C1627.3 272 1587.7 272 1548 272C1508.3 272 1468.7 272 1429 272C1389.3 272 1349.7 272 1309.8 272C1270 272 1230 272 1190.2 272C1150.3 272 1110.7 272 1071 272C1031.3 272 991.7 272 952 272C912.3 272 872.7 272 833 272C793.3 272 753.7 272 714 272C674.3 272 634.7 272 595 272C555.3 272 515.7 272 476 272C436.3 272 396.7 272 357 272C317.3 272 277.7 272 238 272C198.3 272 158.7 272 119 272C79.3 272 39.7 272 19.8 272L0 272Z" fill="#4a1343"></path><path d="M0 105L19.8 104.3C39.7 103.7 79.3 102.3 119 112C158.7 121.7 198.3 142.3 238 141.8C277.7 141.3 317.3 119.7 357 117.5C396.7 115.3 436.3 132.7 476 146.5C515.7 160.3 555.3 170.7 595 163.5C634.7 156.3 674.3 131.7 714 116.8C753.7 102 793.3 97 833 108.5C872.7 120 912.3 148 952 149.2C991.7 150.3 1031.3 124.7 1071 117.5C1110.7 110.3 1150.3 121.7 1190.2 125.3C1230 129 1270 125 1309.8 128.2C1349.7 131.3 1389.3 141.7 1429 152C1468.7 162.3 1508.3 172.7 1548 175.8C1587.7 179 1627.3 175 1667 161.5C1706.7 148 1746.3 125 1786 127C1825.7 129 1865.3 156 1905 161.5C1944.7 167 1984.3 151 2024 147.2C2063.7 143.3 2103.3 151.7 2143 154.5C2182.7 157.3 2222.3 154.7 2262 154.3C2301.7 154 2341.3 156 2381 147.7C2420.7 139.3 2460.3 120.7 2480.2 111.3L2500 102L2500 272L2480.2 272C2460.3 272 2420.7 272 2381 272C2341.3 272 2301.7 272 2262 272C2222.3 272 2182.7 272 2143 272C2103.3 272 2063.7 272 2024 272C1984.3 272 1944.7 272 1905 272C1865.3 272 1825.7 272 1786 272C1746.3 272 1706.7 272 1667 272C1627.3 272 1587.7 272 1548 272C1508.3 272 1468.7 272 1429 272C1389.3 272 1349.7 272 1309.8 272C1270 272 1230 272 1190.2 272C1150.3 272 1110.7 272 1071 272C1031.3 272 991.7 272 952 272C912.3 272 872.7 272 833 272C793.3 272 753.7 272 714 272C674.3 272 634.7 272 595 272C555.3 272 515.7 272 476 272C436.3 272 396.7 272 357 272C317.3 272 277.7 272 238 272C198.3 272 158.7 272 119 272C79.3 272 39.7 272 19.8 272L0 272Z" fill="#83165b"></path><path d="M0 180L19.8 180.2C39.7 180.3 79.3 180.7 119 179.2C158.7 177.7 198.3 174.3 238 173.2C277.7 172 317.3 173 357 169.8C396.7 166.7 436.3 159.3 476 165.3C515.7 171.3 555.3 190.7 595 190.5C634.7 190.3 674.3 170.7 714 160.5C753.7 150.3 793.3 149.7 833 157.5C872.7 165.3 912.3 181.7 952 194.3C991.7 207 1031.3 216 1071 206.3C1110.7 196.7 1150.3 168.3 1190.2 166C1230 163.7 1270 187.3 1309.8 191.3C1349.7 195.3 1389.3 179.7 1429 170C1468.7 160.3 1508.3 156.7 1548 165.7C1587.7 174.7 1627.3 196.3 1667 207.2C1706.7 218 1746.3 218 1786 215.8C1825.7 213.7 1865.3 209.3 1905 210.5C1944.7 211.7 1984.3 218.3 2024 221.3C2063.7 224.3 2103.3 223.7 2143 215.7C2182.7 207.7 2222.3 192.3 2262 192.7C2301.7 193 2341.3 209 2381 215.7C2420.7 222.3 2460.3 219.7 2480.2 218.3L2500 217L2500 272L2480.2 272C2460.3 272 2420.7 272 2381 272C2341.3 272 2301.7 272 2262 272C2222.3 272 2182.7 272 2143 272C2103.3 272 2063.7 272 2024 272C1984.3 272 1944.7 272 1905 272C1865.3 272 1825.7 272 1786 272C1746.3 272 1706.7 272 1667 272C1627.3 272 1587.7 272 1548 272C1508.3 272 1468.7 272 1429 272C1389.3 272 1349.7 272 1309.8 272C1270 272 1230 272 1190.2 272C1150.3 272 1110.7 272 1071 272C1031.3 272 991.7 272 952 272C912.3 272 872.7 272 833 272C793.3 272 753.7 272 714 272C674.3 272 634.7 272 595 272C555.3 272 515.7 272 476 272C436.3 272 396.7 272 357 272C317.3 272 277.7 272 238 272C198.3 272 158.7 272 119 272C79.3 272 39.7 272 19.8 272L0 272Z" fill="#c11367"></path><path d="M0 251L19.8 245.7C39.7 240.3 79.3 229.7 119 232C158.7 234.3 198.3 249.7 238 246.7C277.7 243.7 317.3 222.3 357 212.3C396.7 202.3 436.3 203.7 476 210.8C515.7 218 555.3 231 595 228.8C634.7 226.7 674.3 209.3 714 213C753.7 216.7 793.3 241.3 833 240.7C872.7 240 912.3 214 952 201.2C991.7 188.3 1031.3 188.7 1071 197.7C1110.7 206.7 1150.3 224.3 1190.2 237.3C1230 250.3 1270 258.7 1309.8 256.7C1349.7 254.7 1389.3 242.3 1429 235C1468.7 227.7 1508.3 225.3 1548 224.2C1587.7 223 1627.3 223 1667 223.5C1706.7 224 1746.3 225 1786 223C1825.7 221 1865.3 216 1905 212.2C1944.7 208.3 1984.3 205.7 2024 212.3C2063.7 219 2103.3 235 2143 235.2C2182.7 235.3 2222.3 219.7 2262 213C2301.7 206.3 2341.3 208.7 2381 209.3C2420.7 210 2460.3 209 2480.2 208.5L2500 208L2500 272L2480.2 272C2460.3 272 2420.7 272 2381 272C2341.3 272 2301.7 272 2262 272C2222.3 272 2182.7 272 2143 272C2103.3 272 2063.7 272 2024 272C1984.3 272 1944.7 272 1905 272C1865.3 272 1825.7 272 1786 272C1746.3 272 1706.7 272 1667 272C1627.3 272 1587.7 272 1548 272C1508.3 272 1468.7 272 1429 272C1389.3 272 1349.7 272 1309.8 272C1270 272 1230 272 1190.2 272C1150.3 272 1110.7 272 1071 272C1031.3 272 991.7 272 952 272C912.3 272 872.7 272 833 272C793.3 272 753.7 272 714 272C674.3 272 634.7 272 595 272C555.3 272 515.7 272 476 272C436.3 272 396.7 272 357 272C317.3 272 277.7 272 238 272C198.3 272 158.7 272 119 272C79.3 272 39.7 272 19.8 272L0 272Z" fill="#ff1e67"></path></svg>