<svg id="visual" viewBox="0 0 2000 300" width="2000" height="300" xmlns="http://www.w3.org/2000/svg" xmlns:xlink="http://www.w3.org/1999/xlink" version="1.1"><rect x="0" y="0" width="2000" height="300" fill="#1C0522"></rect><path d="M0 52L14.5 62.2C29 72.3 58 92.7 87 99C116 105.3 145 97.7 174 87.7C203 77.7 232 65.3 261 71.7C290 78 319 103 348 108.2C377 113.3 406 98.7 435 91.5C464 84.3 493 84.7 522 77.7C551 70.7 580 56.3 609 56.2C638 56 667 70 696 72.8C725 75.7 754 67.3 783 66C812 64.7 841 70.3 870 71.5C899 72.7 928 69.3 956.8 77.2C985.7 85 1014.3 104 1043.2 97.8C1072 91.7 1101 60.3 1130 48.7C1159 37 1188 45 1217 55.3C1246 65.7 1275 78.3 1304 84.3C1333 90.3 1362 89.7 1391 86.2C1420 82.7 1449 76.3 1478 68.3C1507 60.3 1536 50.7 1565 58.3C1594 66 1623 91 1652 85.7C1681 80.3 1710 44.7 1739 44.2C1768 43.7 1797 78.3 1826 91.8C1855 105.3 1884 97.7 1913 79.8C1942 62 1971 34 1985.5 20L2000 6L2000 301L1985.5 301C1971 301 1942 301 1913 301C1884 301 1855 301 1826 301C1797 301 1768 301 1739 301C1710 301 1681 301 1652 301C1623 301 1594 301 1565 301C1536 301 1507 301 1478 301C1449 301 1420 301 1391 301C1362 301 1333 301 1304 301C1275 301 1246 301 1217 301C1188 301 1159 301 1130 301C1101 301 1072 301 1043.2 301C1014.3 301 985.7 301 956.8 301C928 301 899 301 870 301C841 301 812 301 783 301C754 301 725 301 696 301C667 301 638 301 609 301C580 301 551 301 522 301C493 301 464 301 435 301C406 301 377 301 348 301C319 301 290 301 261 301C232 301 203 301 174 301C145 301 116 301 87 301C58 301 29 301 14.5 301L0 301Z" fill="#1c0522"></path><path d="M0 108L14.5 106.7C29 105.3 58 102.7 87 106.5C116 110.3 145 120.7 174 114.2C203 107.7 232 84.3 261 86.8C290 89.3 319 117.7 348 131.7C377 145.7 406 145.3 435 128.8C464 112.3 493 79.7 522 75.3C551 71 580 95 609 95C638 95 667 71 696 76.3C725 81.7 754 116.3 783 124C812 131.7 841 112.3 870 93.3C899 74.3 928 55.7 956.8 62C985.7 68.3 1014.3 99.7 1043.2 114.7C1072 129.7 1101 128.3 1130 126.3C1159 124.3 1188 121.7 1217 110C1246 98.3 1275 77.7 1304 79.3C1333 81 1362 105 1391 116.5C1420 128 1449 127 1478 119.2C1507 111.3 1536 96.7 1565 101C1594 105.3 1623 128.7 1652 140.2C1681 151.7 1710 151.3 1739 138.3C1768 125.3 1797 99.7 1826 96.3C1855 93 1884 112 1913 120.8C1942 129.7 1971 128.3 1985.5 127.7L2000 127L2000 301L1985.5 301C1971 301 1942 301 1913 301C1884 301 1855 301 1826 301C1797 301 1768 301 1739 301C1710 301 1681 301 1652 301C1623 301 1594 301 1565 301C1536 301 1507 301 1478 301C1449 301 1420 301 1391 301C1362 301 1333 301 1304 301C1275 301 1246 301 1217 301C1188 301 1159 301 1130 301C1101 301 1072 301 1043.2 301C1014.3 301 985.7 301 956.8 301C928 301 899 301 870 301C841 301 812 301 783 301C754 301 725 301 696 301C667 301 638 301 609 301C580 301 551 301 522 301C493 301 464 301 435 301C406 301 377 301 348 301C319 301 290 301 261 301C232 301 203 301 174 301C145 301 116 301 87 301C58 301 29 301 14.5 301L0 301Z" fill="#2e0f31"></path><path d="M0 84L14.5 98.8C29 113.7 58 143.3 87 151.5C116 159.7 145 146.3 174 135.7C203 125 232 117 261 112C290 107 319 105 348 101.3C377 97.7 406 92.3 435 96.2C464 100 493 113 522 128.3C551 143.7 580 161.3 609 166.3C638 171.3 667 163.7 696 158.2C725 152.7 754 149.3 783 143.3C812 137.3 841 128.7 870 133.2C899 137.7 928 155.3 956.8 155.7C985.7 156 1014.3 139 1043.2 128.5C1072 118 1101 114 1130 111.5C1159 109 1188 108 1217 106.7C1246 105.3 1275 103.7 1304 99C1333 94.3 1362 86.7 1391 89C1420 91.3 1449 103.7 1478 111.3C1507 119 1536 122 1565 126.7C1594 131.3 1623 137.7 1652 131.2C1681 124.7 1710 105.3 1739 100.5C1768 95.7 1797 105.3 1826 117.3C1855 129.3 1884 143.7 1913 136.8C1942 130 1971 102 1985.5 88L2000 74L2000 301L1985.5 301C1971 301 1942 301 1913 301C1884 301 1855 301 1826 301C1797 301 1768 301 1739 301C1710 301 1681 301 1652 301C1623 301 1594 301 1565 301C1536 301 1507 301 1478 301C1449 301 1420 301 1391 301C1362 301 1333 301 1304 301C1275 301 1246 301 1217 301C1188 301 1159 301 1130 301C1101 301 1072 301 1043.2 301C1014.3 301 985.7 301 956.8 301C928 301 899 301 870 301C841 301 812 301 783 301C754 301 725 301 696 301C667 301 638 301 609 301C580 301 551 301 522 301C493 301 464 301 435 301C406 301 377 301 348 301C319 301 290 301 261 301C232 301 203 301 174 301C145 301 116 301 87 301C58 301 29 301 14.5 301L0 301Z" fill="#44143f"></path><path d="M0 159L14.5 164.2C29 169.3 58 179.7 87 179.3C116 179 145 168 174 167C203 166 232 175 261 170C290 165 319 146 348 140.8C377 135.7 406 144.3 435 146.7C464 149 493 145 522 153.3C551 161.7 580 182.3 609 177.8C638 173.3 667 143.7 696 140C725 136.3 754 158.7 783 162.5C812 166.3 841 151.7 870 142.8C899 134 928 131 956.8 126C985.7 121 1014.3 114 1043.2 114C1072 114 1101 121 1130 131.5C1159 142 1188 156 1217 168C1246 180 1275 190 1304 186.8C1333 183.7 1362 167.3 1391 164C1420 160.7 1449 170.3 1478 176.8C1507 183.3 1536 186.7 1565 176.5C1594 166.3 1623 142.7 1652 141.2C1681 139.7 1710 160.3 1739 165.2C1768 170 1797 159 1826 153.5C1855 148 1884 148 1913 142.7C1942 137.3 1971 126.7 1985.5 121.3L2000 116L2000 301L1985.5 301C1971 301 1942 301 1913 301C1884 301 1855 301 1826 301C1797 301 1768 301 1739 301C1710 301 1681 301 1652 301C1623 301 1594 301 1565 301C1536 301 1507 301 1478 301C1449 301 1420 301 1391 301C1362 301 1333 301 1304 301C1275 301 1246 301 1217 301C1188 301 1159 301 1130 301C1101 301 1072 301 1043.2 301C1014.3 301 985.7 301 956.8 301C928 301 899 301 870 301C841 301 812 301 783 301C754 301 725 301 696 301C667 301 638 301 609 301C580 301 551 301 522 301C493 301 464 301 435 301C406 301 377 301 348 301C319 301 290 301 261 301C232 301 203 301 174 301C145 301 116 301 87 301C58 301 29 301 14.5 301L0 301Z" fill="#5b174b"></path><path d="M0 208L14.5 199.5C29 191 58 174 87 176C116 178 145 199 174 208.3C203 217.7 232 215.3 261 207C290 198.7 319 184.3 348 178.8C377 173.3 406 176.7 435 170.5C464 164.3 493 148.7 522 143.3C551 138 580 143 609 156.3C638 169.7 667 191.3 696 202.2C725 213 754 213 783 209.3C812 205.7 841 198.3 870 187C899 175.7 928 160.3 956.8 153.8C985.7 147.3 1014.3 149.7 1043.2 152.7C1072 155.7 1101 159.3 1130 161.7C1159 164 1188 165 1217 172.5C1246 180 1275 194 1304 199.8C1333 205.7 1362 203.3 1391 194.3C1420 185.3 1449 169.7 1478 171.5C1507 173.3 1536 192.7 1565 195C1594 197.3 1623 182.7 1652 173.8C1681 165 1710 162 1739 168.7C1768 175.3 1797 191.7 1826 197C1855 202.3 1884 196.7 1913 194.2C1942 191.7 1971 192.3 1985.5 192.7L2000 193L2000 301L1985.5 301C1971 301 1942 301 1913 301C1884 301 1855 301 1826 301C1797 301 1768 301 1739 301C1710 301 1681 301 1652 301C1623 301 1594 301 1565 301C1536 301 1507 301 1478 301C1449 301 1420 301 1391 301C1362 301 1333 301 1304 301C1275 301 1246 301 1217 301C1188 301 1159 301 1130 301C1101 301 1072 301 1043.2 301C1014.3 301 985.7 301 956.8 301C928 301 899 301 870 301C841 301 812 301 783 301C754 301 725 301 696 301C667 301 638 301 609 301C580 301 551 301 522 301C493 301 464 301 435 301C406 301 377 301 348 301C319 301 290 301 261 301C232 301 203 301 174 301C145 301 116 301 87 301C58 301 29 301 14.5 301L0 301Z" fill="#751a56"></path><path d="M0 250L14.5 239.5C29 229 58 208 87 206.7C116 205.3 145 223.7 174 233.7C203 243.7 232 245.3 261 239.2C290 233 319 219 348 219.8C377 220.7 406 236.3 435 240C464 243.7 493 235.3 522 227.2C551 219 580 211 609 214.7C638 218.3 667 233.7 696 238.2C725 242.7 754 236.3 783 228C812 219.7 841 209.3 870 209.8C899 210.3 928 221.7 956.8 216.2C985.7 210.7 1014.3 188.3 1043.2 177.2C1072 166 1101 166 1130 176.7C1159 187.3 1188 208.7 1217 211.2C1246 213.7 1275 197.3 1304 194C1333 190.7 1362 200.3 1391 204C1420 207.7 1449 205.3 1478 202C1507 198.7 1536 194.3 1565 190.3C1594 186.3 1623 182.7 1652 179.8C1681 177 1710 175 1739 174.2C1768 173.3 1797 173.7 1826 180.5C1855 187.3 1884 200.7 1913 209C1942 217.3 1971 220.7 1985.5 222.3L2000 224L2000 301L1985.5 301C1971 301 1942 301 1913 301C1884 301 1855 301 1826 301C1797 301 1768 301 1739 301C1710 301 1681 301 1652 301C1623 301 1594 301 1565 301C1536 301 1507 301 1478 301C1449 301 1420 301 1391 301C1362 301 1333 301 1304 301C1275 301 1246 301 1217 301C1188 301 1159 301 1130 301C1101 301 1072 301 1043.2 301C1014.3 301 985.7 301 956.8 301C928 301 899 301 870 301C841 301 812 301 783 301C754 301 725 301 696 301C667 301 638 301 609 301C580 301 551 301 522 301C493 301 464 301 435 301C406 301 377 301 348 301C319 301 290 301 261 301C232 301 203 301 174 301C145 301 116 301 87 301C58 301 29 301 14.5 301L0 301Z" fill="#8f1d5e"></path><path d="M0 253L14.5 251.2C29 249.3 58 245.7 87 239.8C116 234 145 226 174 230.8C203 235.7 232 253.3 261 251.8C290 250.3 319 229.7 348 219.5C377 209.3 406 209.7 435 219.3C464 229 493 248 522 258.2C551 268.3 580 269.7 609 262.8C638 256 667 241 696 240.8C725 240.7 754 255.3 783 256.5C812 257.7 841 245.3 870 237C899 228.7 928 224.3 956.8 221.2C985.7 218 1014.3 216 1043.2 224.5C1072 233 1101 252 1130 249.8C1159 247.7 1188 224.3 1217 217.5C1246 210.7 1275 220.3 1304 221.7C1333 223 1362 216 1391 220.2C1420 224.3 1449 239.7 1478 239.3C1507 239 1536 223 1565 221.7C1594 220.3 1623 233.7 1652 237.8C1681 242 1710 237 1739 232.7C1768 228.3 1797 224.7 1826 220C1855 215.3 1884 209.7 1913 210.7C1942 211.7 1971 219.3 1985.5 223.2L2000 227L2000 301L1985.5 301C1971 301 1942 301 1913 301C1884 301 1855 301 1826 301C1797 301 1768 301 1739 301C1710 301 1681 301 1652 301C1623 301 1594 301 1565 301C1536 301 1507 301 1478 301C1449 301 1420 301 1391 301C1362 301 1333 301 1304 301C1275 301 1246 301 1217 301C1188 301 1159 301 1130 301C1101 301 1072 301 1043.2 301C1014.3 301 985.7 301 956.8 301C928 301 899 301 870 301C841 301 812 301 783 301C754 301 725 301 696 301C667 301 638 301 609 301C580 301 551 301 522 301C493 301 464 301 435 301C406 301 377 301 348 301C319 301 290 301 261 301C232 301 203 301 174 301C145 301 116 301 87 301C58 301 29 301 14.5 301L0 301Z" fill="#ab1f64"></path><path d="M0 286L14.5 279.3C29 272.7 58 259.3 87 256.5C116 253.7 145 261.3 174 259.5C203 257.7 232 246.3 261 240.7C290 235 319 235 348 238.8C377 242.7 406 250.3 435 252.3C464 254.3 493 250.7 522 253.8C551 257 580 267 609 264.8C638 262.7 667 248.3 696 246C725 243.7 754 253.3 783 254C812 254.7 841 246.3 870 243.3C899 240.3 928 242.7 956.8 245.2C985.7 247.7 1014.3 250.3 1043.2 255.2C1072 260 1101 267 1130 266.5C1159 266 1188 258 1217 258C1246 258 1275 266 1304 272.5C1333 279 1362 284 1391 283C1420 282 1449 275 1478 274.8C1507 274.7 1536 281.3 1565 277.7C1594 274 1623 260 1652 254C1681 248 1710 250 1739 257.3C1768 264.7 1797 277.3 1826 281.5C1855 285.7 1884 281.3 1913 281.7C1942 282 1971 287 1985.5 289.5L2000 292L2000 301L1985.5 301C1971 301 1942 301 1913 301C1884 301 1855 301 1826 301C1797 301 1768 301 1739 301C1710 301 1681 301 1652 301C1623 301 1594 301 1565 301C1536 301 1507 301 1478 301C1449 301 1420 301 1391 301C1362 301 1333 301 1304 301C1275 301 1246 301 1217 301C1188 301 1159 301 1130 301C1101 301 1072 301 1043.2 301C1014.3 301 985.7 301 956.8 301C928 301 899 301 870 301C841 301 812 301 783 301C754 301 725 301 696 301C667 301 638 301 609 301C580 301 551 301 522 301C493 301 464 301 435 301C406 301 377 301 348 301C319 301 290 301 261 301C232 301 203 301 174 301C145 301 116 301 87 301C58 301 29 301 14.5 301L0 301Z" fill="#c62368"></path></svg>